<?xml version="1.0" standalone="no"?>
<!DOCTYPE svg PUBLIC "-//W3C//DTD SVG 1.1//EN" "http://www.w3.org/Graphics/SVG/1.1/DTD/svg11.dtd" >
<svg xmlns="http://www.w3.org/2000/svg">
  <metadata>Created by iconfont</metadata>
  <defs>
  <font id="iconfont" horiz-adv-x="1024">
    <font-face
      font-family="iconfont"
      font-weight="400"
      font-stretch="normal"
      units-per-em="1024"
      ascent="896"
      descent="-128"
    />
      <missing-glyph />
      
      <glyph glyph-name="quxiaoqunzu" unicode="&#58954;" d="M833.536 845.12a29.888 29.888 0 0 1-40.896-10.88L290.112-36.352a29.888 29.888 0 1 1 51.776-29.888l502.592 870.464a29.888 29.888 0 0 1-10.944 40.832zM216.64 742.784h486.4l-33.28-57.6H591.36V549.12l-62.912-108.928h-318.08v-351.04a6.4 6.4 0 0 1 6.4-6.4h105.344l-33.28-57.6H216.64a64 64 0 0 0-64 64V678.784a64 64 0 0 0 64 64z m317.056-57.6H216.64a6.4 6.4 0 0 1-6.4-6.4v-180.928H533.76V685.184zM858.432 82.816H464.768l-33.28-57.6h426.88a64 64 0 0 1 64 64V678.784a64 64 0 0 1-64 64h-12.608l-33.28-57.6h45.952a6.4 6.4 0 0 0 6.4-6.4v-589.568a6.4 6.4 0 0 0-6.4-6.4z"  horiz-adv-x="1088" />
      
      <glyph glyph-name="quxiaoquanping" unicode="&#58952;" d="M411.828706 274.672941H308.404706a22.889412 22.889412 0 0 1 0-45.718588h80.594823v-75.595294a22.889412 22.889412 0 0 1 45.658353 0v98.42447a22.889412 22.889412 0 0 1-22.829176 22.889412zM609.581176 274.672941h103.484236a22.889412 22.889412 0 0 0 0-45.718588H632.470588v-75.595294a22.889412 22.889412 0 0 0-45.718588 0v98.42447a22.889412 22.889412 0 0 0 22.889412 22.889412zM411.828706 437.609412H308.404706a22.889412 22.889412 0 1 0 0 45.778823h80.594823V558.863059a22.889412 22.889412 0 1 0 45.658353 0V460.498824a22.889412 22.889412 0 0 0-22.829176-22.889412zM609.581176 437.609412h103.484236a22.889412 22.889412 0 1 1 0 45.778823H632.470588V558.863059a22.889412 22.889412 0 0 1-45.718588 0V460.498824a22.889412 22.889412 0 0 1 22.889412-22.889412zM796.310588 687.947294H225.099294a45.778824 45.778824 0 0 1-45.658353-45.718588v-571.211294c0-25.178353 20.48-45.658353 45.658353-45.658353h571.211294a45.778824 45.778824 0 0 1 45.718588 45.658353V642.228706a45.778824 45.778824 0 0 1-45.718588 45.718588zM225.099294 71.017412V642.228706h571.211294l0.060236-571.211294H225.099294z"  horiz-adv-x="1024" />
      
      <glyph glyph-name="quanping" unicode="&#58953;" d="M408.576 585.125647H305.091765a22.889412 22.889412 0 0 1-22.889412-22.889412v-98.42447a22.889412 22.889412 0 1 1 45.778823 0V539.407059h80.594824a22.889412 22.889412 0 0 1 0 45.718588z m296.96 0H602.112a22.889412 22.889412 0 0 1 0-45.718588h80.594824v-75.595294a22.889412 22.889412 0 1 1 45.718588 0V562.236235a22.889412 22.889412 0 0 1-22.889412 22.889412z m-296.96-418.394353H327.920941V242.447059a22.889412 22.889412 0 1 1-45.658353 0v-98.484706a22.889412 22.889412 0 0 1 22.889412-22.889412h103.424a22.889412 22.889412 0 0 1 0 45.778824z m296.96 98.484706a22.829176 22.829176 0 0 1-22.829176-22.829176v-75.595295H602.112a22.889412 22.889412 0 0 1 0-45.778823h103.424a22.889412 22.889412 0 0 1 22.889412 22.889412V242.447059a22.889412 22.889412 0 0 1-22.889412 22.889412zM796.310588 687.947294H225.099294a45.778824 45.778824 0 0 1-45.658353-45.718588v-571.211294c0-25.178353 20.48-45.658353 45.658353-45.658353h571.211294a45.778824 45.778824 0 0 1 45.718588 45.658353V642.228706a45.778824 45.778824 0 0 1-45.718588 45.718588zM225.099294 71.017412V642.228706h571.211294l0.060236-571.211294H225.099294z"  horiz-adv-x="1024" />
      
      <glyph glyph-name="qunzu" unicode="&#58950;" d="M892.992 742.784a64 64 0 0 0 64-64v-589.568a64 64 0 0 0-64-64H251.2a64 64 0 0 0-64 64V678.784a64 64 0 0 0 64 64h641.792z m-267.136-57.6v-244.928H244.8v-351.04a6.4 6.4 0 0 1 6.4-6.4h641.792a6.4 6.4 0 0 1 6.4 6.4V678.784a6.4 6.4 0 0 1-6.4 6.4H625.856z m-57.6 0H251.2a6.4 6.4 0 0 1-6.4-6.4v-180.928h323.456V685.184z"  horiz-adv-x="1088" />
      
      <glyph glyph-name="kuangxuan" unicode="&#58951;" d="M297.216 683.264a35.008 35.008 0 0 0 13.44 2.688h32.192v57.6h-32.128c-12.544 0-24.576-2.56-35.584-7.04l22.08-53.248zM407.232 685.952H471.68v57.6H407.232v-57.6zM536 685.952H600.32v57.6H536v-57.6zM664.704 685.952h64.384v57.6h-64.384v-57.6zM793.472 685.952h32.192c4.8 0 9.344-0.96 13.44-2.688l22.08 53.184a92.608 92.608 0 0 1-35.52 7.04h-32.192v-57.6zM275.52 650.752c0 4.8 0.896 9.344 2.624 13.44l-53.184 22.08c-4.544-11.008-7.04-23.04-7.04-35.52v-32.192h57.6v32.192zM858.24 664.192a35.072 35.072 0 0 0 2.56-13.44v-32.192h57.6v32.192c0 12.48-2.432 24.512-7.04 35.52l-53.12-22.08zM275.52 489.856V554.24h-57.6v-64.384h57.6zM860.8 554.24v-64.384h57.6V554.24h-57.6zM275.52 361.216V425.536h-57.6v-64.32h57.6zM860.8 425.6v-32.256h57.6V425.6h-57.6zM275.52 232.512V296.96h-57.6v-64.384h57.6zM275.52 136v32.192h-57.6v-32.192c0-12.48 2.496-24.512 7.04-35.52l53.184 22.08a35.008 35.008 0 0 0-2.624 13.44zM310.72 100.8a35.072 35.072 0 0 0-13.44 2.688l-22.144-53.184c11.008-4.608 23.04-7.04 35.584-7.04h32.128v57.6h-32.128zM471.616 100.8H407.232v-57.6H471.68v57.6zM568.192 100.8h-32.192v-57.6h32.192v57.6zM833.92 281.408l-45.696-35.456 98.752-127.808a12.736 12.736 0 0 0-2.24-17.92l-57.152-44.288a12.736 12.736 0 0 0-17.92 2.304l-98.816 127.808-45.696-35.392a12.928 12.928 0 0 0-12.032-1.92 12.608 12.608 0 0 0-8.192 8.96L626.56 361.408a12.8 12.8 0 0 0 18.432 14.272l187.264-72.96a12.8 12.8 0 0 0 1.792-21.312z"  horiz-adv-x="1088" />
      
      <glyph glyph-name="zuobian" unicode="&#58957;" d="M177.6 704.96a64 64 0 0 0 64 64h641.92a64 64 0 0 0 64-64v-641.92a64 64 0 0 0-64-64H241.6a64 64 0 0 0-64 64V704.96z m248.576 6.4v-646.784a32.128 32.128 0 0 0-0.96-7.936h458.304a6.4 6.4 0 0 1 6.4 6.4V704.96a6.4 6.4 0 0 1-6.4 6.4H426.24z m-64 0H241.6a6.4 6.4 0 0 1-6.4-6.4v-641.92a6.4 6.4 0 0 1 6.4-6.4h121.6a32.128 32.128 0 0 0-1.024 7.936V711.36z"  horiz-adv-x="1088" />
      
      <glyph glyph-name="youbian1" unicode="&#58958;" d="M696.768-0.96h136.192a64 64 0 0 1 64 64V704.96a64 64 0 0 1-64 64H191.04a64 64 0 0 1-64-64v-641.92a64 64 0 0 1 64-64h472.896a31.872 31.872 0 0 1 32.832 0z m-48.384 712.32v-654.72H191.04a6.4 6.4 0 0 0-6.4 6.4V704.96a6.4 6.4 0 0 0 6.4 6.4h457.344z m64-654.72V711.36h120.576a6.4 6.4 0 0 0 6.4-6.4v-641.92a6.4 6.4 0 0 0-6.4-6.4H712.32z"  horiz-adv-x="1024" />
      
      <glyph glyph-name="kaishi1" unicode="&#58959;" d="M674.273882 377.735529a30.117647 30.117647 0 0 0 0-46.20047L468.630588 159.623529a30.117647 30.117647 0 0 0-49.392941 23.130353V526.516706a30.117647 30.117647 0 0 0 49.392941 23.070118l205.70353-171.851295zM473.449412 474.955294v-240.64l143.962353 120.289882L473.449412 474.955294zM896.783059 377.253647a384.783059 384.783059 0 1 0-769.566118 0 384.783059 384.783059 0 0 0 769.566118 0z m-60.235294 0a324.547765 324.547765 0 1 1-649.09553 0 324.547765 324.547765 0 0 1 649.09553 0z"  horiz-adv-x="1024" />
      
      <glyph glyph-name="dibu2" unicode="&#58960;" d="M896.96 208a32 32 0 0 1 0 12.352V704.96a64 64 0 0 1-64 64H191.04a64 64 0 0 1-64-64v-484.48a32.192 32.192 0 0 1 0-12.544v-144.896a64 64 0 0 1 64-64h641.92a64 64 0 0 1 64 64v145.024z m-64 503.36a6.4 6.4 0 0 0 6.4-6.4v-458.752H184.64V704.96a6.4 6.4 0 0 0 6.4 6.4h641.92z m6.4-529.152v-119.168a6.4 6.4 0 0 0-6.4-6.4H191.04a6.4 6.4 0 0 0-6.4 6.4v119.168h654.72z"  horiz-adv-x="1024" />
      
      <glyph glyph-name="kexuanguocheng" unicode="&#58961;" d="M710.592 512.512a32 32 0 1 1-53.76 34.688L490.624 289.472 371.84 394.24a32 32 0 0 1-42.304-48l118.848-104.768a64 64 0 0 1 96.128 13.376l166.08 257.664zM920.832 384A408.832 408.832 0 1 0 103.168 384a408.832 408.832 0 0 0 817.664 0z m-64 0A344.832 344.832 0 1 1 167.168 384a344.832 344.832 0 0 1 689.664 0z"  horiz-adv-x="1024" />
      
      <glyph glyph-name="cachu" unicode="&#58962;" d="M181.308235 324.186353a60.235294 60.235294 0 0 1 0-85.172706l84.329412-84.329412a60.235294 60.235294 0 0 1 41.743059-17.648941l213.052235-3.132235a60.235294 60.235294 0 0 1 43.489883 17.648941l278.708705 278.708706a60.235294 60.235294 0 0 1 0 85.172706l-192.391529 192.451764a60.235294 60.235294 0 0 1-85.232941 0l-383.698824-383.698823zM603.437176 669.515294a6.023529 6.023529 0 0 0 8.493177 0l192.451765-192.391529a6.023529 6.023529 0 0 0 0-8.553412L639.036235 303.284706 439.356235 502.964706a27.708235 27.708235 0 0 1-1.325176 1.204706L603.376941 669.515294z m-383.698823-383.698823l180.103529 180.103529a27.708235 27.708235 0 0 1 1.204706-1.325176l199.68-199.619765-75.113412-75.113412a6.023529 6.023529 0 0 0-4.336941-1.807059L308.163765 191.247059a6.023529 6.023529 0 0 0-4.156236 1.807059l-84.329411 84.329411a6.023529 6.023529 0 0 0 0 8.432942zM138.782118 77.884235a27.105882 27.105882 0 1 1 0-54.211764h682.465882a27.105882 27.105882 0 0 1 0 54.211764H138.782118z"  horiz-adv-x="1024" />
      
      <glyph glyph-name="fangda" unicode="&#58936;" d="M862.448941 51.802353l-115.049412 115.049412a343.220706 343.220706 0 0 1 95.774118 237.929411 345.148235 345.148235 0 0 1-344.666353 344.666353 345.148235 345.148235 0 0 1-344.726588-344.666353 345.148235 345.148235 0 0 1 344.726588-344.726588c78.727529 0 151.190588 26.864941 209.257412 71.439059l117.157647-117.217882a26.383059 26.383059 0 0 1 37.526588 0 26.503529 26.503529 0 0 1 0 37.526588zM206.787765 404.781176a292.020706 292.020706 0 0 0 291.719529 291.659295 292.020706 292.020706 0 0 0 291.659294-291.659295 292.020706 292.020706 0 0 0-291.659294-291.719529 292.020706 292.020706 0 0 0-291.719529 291.719529z m412.491294 26.50353H525.010824v92.762353a26.503529 26.503529 0 0 1-53.007059 0v-92.762353H379.120941a26.503529 26.503529 0 0 1 0-53.007059h92.762353v-92.822588a26.503529 26.503529 0 0 1 53.007059 0v92.762353h94.328471a26.503529 26.503529 0 0 1 0 53.007059z"  horiz-adv-x="1024" />
      
      <glyph glyph-name="xiazai" unicode="&#58937;" d="M896 32H128c-17.088 0-32-14.912-32-32s14.912-32 32-32h768c17.088 0 32 14.912 32 32s-14.912 32-32 32z m-407.488 136.512c6.4-6.4 14.976-8.512 23.488-8.512a32 32 0 0 1 23.488 8.512L748.8 381.888c12.8 12.8 12.8 32 0 44.8-12.8 12.8-32 12.8-44.8 0L546.112 268.8V725.312c0 17.088-14.912 32-32 32-17.024 0-34.112-14.912-34.112-32V268.8L322.112 426.688c-12.8 12.8-32 12.8-44.8 0-12.8-12.8-12.8-32 0-44.8l211.2-213.376z"  horiz-adv-x="1024" />
      
      <glyph glyph-name="shangchuan" unicode="&#58938;" d="M128-32h768c17.088 0 32 14.912 32 32s-14.912 32-32 32H128c-17.088 0-32-14.912-32-32s14.912-32 32-32zM535.488 727.488A32.128 32.128 0 0 1 512 736a32 32 0 0 1-23.488-8.512L275.2 514.112c-12.8-12.8-12.8-32 0-44.8 12.8-12.8 32-12.8 44.8 0L477.888 627.2v-456.512c0-17.088 14.912-32 32-32 17.024 0 34.112 14.912 34.112 32V627.2l157.888-157.888c12.8-12.8 32-12.8 44.8 0 12.8 12.8 12.8 32 0 44.8l-211.2 213.376z"  horiz-adv-x="1024" />
      
      <glyph glyph-name="zuo" unicode="&#58939;" d="M429.184 532.736V703.744L129.856 404.48l299.328-299.392v175.36c213.76 0 363.392-68.352 470.272-218.048-42.688 213.76-171.008 427.52-470.272 470.4z"  horiz-adv-x="1088" />
      
      <glyph glyph-name="jiantou" unicode="&#58940;" d="M634.56 734.08a42.688 42.688 0 0 0 63.04-57.408l-2.432-2.752L405.12 381.696l289.728-287.36a42.624 42.624 0 0 0 2.688-57.6l-2.432-2.816a42.688 42.688 0 0 0-57.6-2.688l-2.752 2.496-320 317.44a42.688 42.688 0 0 0-2.752 57.6l2.496 2.752 320 322.56z"  horiz-adv-x="1088" />
      
      <glyph glyph-name="shuju" unicode="&#58941;" d="M831.969882 585.065412a32.346353 32.346353 0 0 0 6.505412-43.369412l-227.809882-323.403294-141.19153 161.671529-132.638117-161.430588a28.129882 28.129882 0 0 0-41.321412-2.409412 32.286118 32.286118 0 0 0-3.493647 43.670589l174.923294 212.871529 137.697882-157.696 186.428236 264.553412a28.009412 28.009412 0 0 0 40.899764 5.541647zM233.231059 638.795294a30.117647 30.117647 0 0 0 30.117647-30.117647v-484.171294H906.541176a30.117647 30.117647 0 0 0 0-60.235294H203.113412V608.677647a30.117647 30.117647 0 0 0 30.117647 30.117647z"  horiz-adv-x="1024" />
      
      <glyph glyph-name="juece" unicode="&#58942;" d="M721.197176 105.351529v-50.778353a7.228235 7.228235 0 0 0-7.228235-7.228235H220.461176a7.228235 7.228235 0 0 0-7.228235 7.228235v50.778353a7.228235 7.228235 0 0 0 7.228235 7.228236h493.507765a7.228235 7.228235 0 0 0 7.228235-7.228236zM592.112941 660.359529a29.033412 29.033412 0 0 0 18.010353-36.924235l-56.741647-164.623059 404.901647-139.444706c3.794824-1.264941 5.782588-5.421176 4.517647-9.276235l-16.624941-47.947294a7.288471 7.288471 0 0 0-9.216-4.517647L532.118588 397.010824l-56.741647-164.623059a29.033412 29.033412 0 0 0-36.924235-17.950118L184.560941 301.839059a29.033412 29.033412 0 0 0-17.950117 36.924235l134.686117 391.168a29.033412 29.033412 0 0 0 36.924235 17.950118L592.112941 660.359529z m-55.597176-49.995294L351.292235 674.153412 240.338824 351.653647l185.223529-63.728941 111.013647 322.439529z"  horiz-adv-x="1024" />
      
      <glyph glyph-name="you" unicode="&#58943;" d="M601.856 532.736V703.744l299.328-299.264-299.328-299.392v175.36c-213.76 0-363.456-68.352-470.272-218.048 42.688 213.76 170.944 427.52 470.272 470.4z"  horiz-adv-x="1088" />
      
      <glyph glyph-name="shanchu" unicode="&#58944;" d="M117.824 566.144a30.336 30.336 0 1 0 0 60.8h789.44a30.4 30.4 0 0 0 0-60.8H117.76z m698.304 0h60.8v-425.024a151.808 151.808 0 0 0-151.872-151.808H299.968a151.808 151.808 0 0 0-151.808 151.808V566.144h60.8v-91.072h-60.8V566.144h60.8v-425.024a91.072 91.072 0 0 1 91.008-91.136h425.088a91.072 91.072 0 0 1 91.072 91.136V566.144z m-485.76-106.24a30.336 30.336 0 1 0 60.736 0v-303.616a30.4 30.4 0 0 0-60.8 0V459.904z m303.616 0a30.336 30.336 0 1 0 60.736 0v-303.616a30.4 30.4 0 0 0-60.8 0V459.904z m-334.016 167.04H239.36v60.672a91.072 91.072 0 0 0 91.072 91.072h364.352a91.072 91.072 0 0 0 91.072-91.072v-60.736h-60.736V657.28h60.736v-30.4h-60.736v60.8a30.336 30.336 0 0 1-30.336 30.336H330.368a30.336 30.336 0 0 1-30.4-30.4v-60.736z"  horiz-adv-x="1088" />
      
      <glyph glyph-name="dingwei" unicode="&#58945;" d="M539.52 719.04a336.192 336.192 0 0 0 307.52-307.456h61.76a27.52 27.52 0 0 0 0-55.104h-61.76a336.192 336.192 0 0 0-307.456-307.52v-61.76a27.52 27.52 0 1 0-55.168 0v61.76A336.128 336.128 0 0 0 176.96 356.48H115.2a27.52 27.52 0 1 0 0 55.168h61.76A336.192 336.192 0 0 0 484.48 719.04V780.8a27.52 27.52 0 1 0 55.168 0v-61.76z m-27.328-616.128a281.024 281.024 0 0 1 280.896 280.512V384.64A281.024 281.024 0 1 1 512 102.976h0.192zM335.68 384a176.32 176.32 0 1 1 352.64 0 176.32 176.32 0 0 1-352.64 0z"  horiz-adv-x="1024" />
      
      <glyph glyph-name="suoxiao" unicode="&#58946;" d="M862.448941 63.849412l-115.049412 115.049412a343.220706 343.220706 0 0 1 95.774118 237.929411 345.148235 345.148235 0 0 1-344.666353 344.666353 345.148235 345.148235 0 0 1-344.726588-344.666353 345.148235 345.148235 0 0 1 344.726588-344.726588c78.727529 0 151.190588 26.804706 209.257412 71.439059l117.157647-117.217882a26.503529 26.503529 0 1 1 37.526588 37.526588zM206.787765 416.828235a292.020706 292.020706 0 0 0 291.719529 291.659294 292.020706 292.020706 0 0 0 291.659294-291.659294 292.020706 292.020706 0 0 0-291.659294-291.719529 292.020706 292.020706 0 0 0-291.719529 291.719529z m412.491294 26.50353H379.181176a26.503529 26.503529 0 0 1 0-53.007059H619.218824a26.503529 26.503529 0 0 1 0 53.007059z"  horiz-adv-x="1024" />
      
      <glyph glyph-name="duihao" unicode="&#58947;" d="M935.424 737.984c18.112-14.528 21.12-41.216 6.592-59.328l-501.76-626.688a42.368 42.368 0 0 0-59.328-6.528 42.368 42.368 0 0 0-6.592 59.328l501.76 626.688a42.432 42.432 0 0 0 59.328 6.528zM93.184 390.4a42.24 42.24 0 0 0 59.648 0.128l283.968-283.264a42.24 42.24 0 0 0 0.064-59.648 42.24 42.24 0 0 0-59.648-0.128L93.184 330.752a42.24 42.24 0 0 0 0 59.648z"  horiz-adv-x="1024" />
      
      <glyph glyph-name="lianjie" unicode="&#58948;" d="M472.606118 749.507765a90.352941 90.352941 0 0 0 123.422117 33.129411l233.231059-134.686117a90.352941 90.352941 0 0 0 33.069177-123.482353L771.373176 367.134118a30.117647 30.117647 0 1 0-52.163764 30.117647l90.834823 157.394823a30.117647 30.117647 0 0 1-10.962823 41.140706L565.910588 730.352941a30.117647 30.117647 0 0 1-41.140706-11.023059L433.874824 561.995294a30.117647 30.117647 0 1 0-52.163765 30.117647l90.895059 157.394824zM330.872471 443.813647a30.117647 30.117647 0 0 0 11.023058-41.140706l-90.955294-157.575529a30.117647 30.117647 0 0 1 11.023059-41.140706l233.231059-134.625882a30.117647 30.117647 0 0 1 41.140706 11.023058l90.955294 157.57553a30.117647 30.117647 0 1 0 52.163765-30.117647l-90.955294-157.57553a90.352941 90.352941 0 0 0-123.482353-33.069176L231.905882 151.853176a90.352941 90.352941 0 0 0-33.129411 123.361883L289.731765 432.790588a30.117647 30.117647 0 0 0 41.140706 11.023059zM593.558588 509.108706a30.117647 30.117647 0 0 0 11.023059-41.140706l-95.954823-166.249412a30.117647 30.117647 0 0 0-52.163765 30.117647l95.954823 166.249412a30.117647 30.117647 0 0 0 41.140706 11.023059z"  horiz-adv-x="1024" />
      
      <glyph glyph-name="guocheng" unicode="&#58949;" d="M551.755294 718.185412a61.560471 61.560471 0 1 0-123.060706 0 61.560471 61.560471 0 0 0 123.120941 0z m193.716706-505.374118a61.560471 61.560471 0 1 1 106.616471-61.56047 61.560471 61.560471 0 0 1-106.616471 61.56047z m-509.590588 0a61.560471 61.560471 0 1 1-106.616471-61.620706 61.560471 61.560471 0 0 1 106.616471 61.620706z m349.786353 505.374118c0-15.902118-3.915294-30.900706-10.842353-44.092236a324.065882 324.065882 0 0 0 196.969412-151.371294 324.065882 324.065882 0 0 0 32.828235-245.458823c21.383529-1.325176 40.96-9.637647 56.199529-22.768941a384.180706 384.180706 0 0 1-36.864 298.345411 384.240941 384.240941 0 0 1-239.555764 181.007059c0.843294-5.12 1.204706-10.360471 1.204705-15.661176z m-190.825412 0c0-15.902118 3.855059-30.900706 10.721882-44.032a325.632 325.632 0 0 1-229.737411-396.950588 95.051294 95.051294 0 0 1-56.018824-23.43153A385.505882 385.505882 0 0 0 396.047059 733.967059a96.075294 96.075294 0 0 1-1.264941-15.721412z m-181.248-626.447059c19.817412 6.806588 36.683294 19.937882 48.188235 36.984471a325.270588 325.270588 0 0 1 457.487059 0.542117c11.384471-17.106824 28.129882-30.358588 47.826824-37.345882a385.505882 385.505882 0 0 0-553.562353-0.240941z"  horiz-adv-x="1024" />
      
      <glyph glyph-name="fill-huiyi" unicode="&#59299;" d="M113.792 768h796.416c27.392 0 49.792-22.272 49.792-49.728a49.92 49.92 0 0 0-49.792-49.792v-432.704a115.2 115.2 0 0 0-114.944-114.944h-25.92l36.672-78.464a49.792 49.792 0 0 0-90.24-42.176l-56.192 120.64H364.416l-56.256-120.64a49.92 49.92 0 0 0-66.112-24 49.92 49.92 0 0 0-24.064 66.176l36.672 78.464h-25.92a115.2 115.2 0 0 0-114.944 114.944v432.64A49.92 49.92 0 0 0 64 718.144 49.92 49.92 0 0 0 113.792 768z m199.04-547.52a49.92 49.92 0 0 1 49.792 49.792V369.792a49.92 49.92 0 0 1-49.792 49.856 49.92 49.92 0 0 1-49.792-49.856v-99.52c0-27.392 22.4-49.792 49.792-49.792z m248.96 49.792v199.04A49.92 49.92 0 0 1 512 519.168a49.92 49.92 0 0 1-49.792-49.856v-199.04c0-27.392 22.4-49.792 49.792-49.792a49.92 49.92 0 0 1 49.856 49.792z m149.248-49.792a49.92 49.92 0 0 1 49.792 49.792V568.96a49.92 49.92 0 0 1-49.792 49.792 49.92 49.92 0 0 1-49.792-49.792v-298.688c0-27.392 22.4-49.792 49.792-49.792z"  horiz-adv-x="1024" />
      
      <glyph glyph-name="fill-yingjian" unicode="&#59300;" d="M873.216 663.616c-8.448 23.04-28.032 40.384-53.248 40.384h-613.12c-25.28 0-47.68-17.28-56.064-43.264L72.384 328.96H951.68L873.216 663.68zM64 271.296v-201.984c0-31.68 25.216-57.664 56-57.664h784c30.784 0 56 25.92 56 57.664V271.36H64z m672-144.256v57.664h112v-57.664H736z"  horiz-adv-x="1024" />
      
      <glyph glyph-name="fill-xiezuo" unicode="&#59301;" d="M477.320533 764.791467c57.5488 0 111.616-15.837867 157.9008-42.734934a166.434133 166.434133 0 1 1 321.809067-60.074666 166.024533 166.024533 0 0 1-166.570667 165.546666c-21.367467 0-42.052267-4.096-61.2352-11.605333A441.275733 441.275733 0 0 1 476.9792 894.702933a442.368 442.368 0 0 1-178.653867-37.546666l76.3904-110.1824a301.2608 301.2608 0 0 0 102.673067 17.749333l-0.068267 0.068267zM334.4384 671.812267A166.434133 166.434133 0 0 1 167.867733 837.973333a166.434133 166.434133 0 0 1-166.570666-166.0928c0-44.6464 17.749333-85.060267 46.557866-115.0976a439.637333 439.637333 0 0 1 196.608-476.091733l33.450667 136.533333a309.179733 309.179733 0 0 0-106.973867 288.5632 166.229333 166.229333 0 0 1 163.498667 166.0928z m288.017067-491.383467a309.111467 309.111467 0 0 1 165.4784 260.096h-0.068267l130.048 43.4176c0.682667-9.693867 1.160533-19.456 1.160533-29.149867 0-190.464-121.514667-352.802133-291.362133-414.242133a167.253333 167.253333 0 0 0-153.736533-101.5808 166.570667 166.570667 0 0 0-166.570667 166.0928 166.2976 166.2976 0 0 0 166.570667 166.024533 166.229333 166.229333 0 0 0 148.48-90.658133z"  horiz-adv-x="1024" />
      
      <glyph glyph-name="fill-hetong" unicode="&#59302;" d="M600.256 244.48h240.256c45.568 0 82.816-37.568 82.816-83.456v-81.472a41.024 41.024 0 0 0-40.832-41.216H104.896A41.024 41.024 0 0 0 64 79.552v81.472c0 45.888 37.248 83.456 82.816 83.456H387.2a117.12 117.12 0 0 1 24.704 72.064v22.976c0 22.784-6.592 44.032-17.92 62.08a227.008 227.008 0 0 0-125.312 203.52C268.608 730.432 369.28 832 493.696 832c124.288 0 225.024-101.568 225.024-226.88 0-89.216-51.072-166.4-125.312-203.52a117.248 117.248 0 0 1-17.92-62.08v-22.976c0-27.136 9.28-52.096 24.768-72.064zM64-33.088c0 17.152 13.696 30.976 30.72 30.976h797.952c16.96 0 30.72-13.824 30.72-30.976a30.72 30.72 0 0 0-30.72-30.912H94.656A30.72 30.72 0 0 0 64-33.088z"  horiz-adv-x="1024" />
      
      <glyph glyph-name="fill-renwu" unicode="&#59303;" d="M648.030316 788.210526c15.521684 0 29.857684-8.299789 37.726316-21.773473v0.053894a43.169684 43.169684 0 0 0 6.144-21.989052v-43.11579a43.870316 43.870316 0 0 0-43.870316-43.762526H406.204632a43.924211 43.924211 0 0 0-43.924211 43.762526v43.11579A44.085895 44.085895 0 0 0 406.204632 788.210526h241.825684z m164.917895-29.103158h-65.050948v-98.573473a65.751579 65.751579 0 0 0-64.943158-66.290527H356.998737a65.751579 65.751579 0 0 0-64.997053 66.290527V725.800421l-0.107789 17.408-0.053895 15.898947H226.573474A65.212632 65.212632 0 0 1 161.684211 693.517474V99.435789C161.684211 63.164632 190.787368 33.684211 226.573474 33.684211h586.805894a65.374316 65.374316 0 0 1 64.835369 65.697684V693.463579c0 36.217263-29.264842 65.643789-65.212632 65.643789v-0.053894zM749.136842 482.088421l-233.36421-262.898526a42.145684 42.145684 0 0 0-31.420632-14.228211H483.974737a42.091789 42.091789 0 0 0-31.474526 14.659369l-113.987369 131.449263a44.786526 44.786526 0 0 0 3.449263 61.817263 41.660632 41.660632 0 0 0 60.092632-3.449263l82.458947-95.285895 201.674105 227.004632a41.714526 41.714526 0 0 0 59.284211 1.886315c17.030737-16.168421 18.539789-42.954105 3.503158-61.008842h0.053895z"  horiz-adv-x="1024" />
      
      <glyph glyph-name="fill-yuangongdangan" unicode="&#59304;" d="M619.2 173.248c-56.192-37.568-98.048-104.96-121.792-197.248-3.52-13.504-2.368-27.328 2.368-40H145.792A81.792 81.792 0 0 0 64 17.792V750.208C64 795.392 100.608 832 145.792 832h30.208v-268.8c0-12.416 10.048-22.4 22.4-22.4h537.6a22.4 22.4 0 0 1 22.4 22.4V832h30.208c45.184 0 81.792-36.608 81.792-81.792v-385.28a158.464 158.464 0 0 1-290.112-88.32c0-38.528 13.888-74.88 38.912-103.36zM220.8 832h492.8v-246.4h-492.8V832z m403.2-201.6a22.4 22.4 0 0 1 22.4 22.4V764.8a22.4 22.4 0 1 1-44.8 0V652.8c0-12.352 10.048-22.4 22.4-22.4zM544.96-54.912a23.04 23.04 0 0 1 18.368-9.088h351.04a23.04 23.04 0 0 1 18.368 9.088 22.784 22.784 0 0 1 4.16 19.712c-16.768 65.28-52.224 150.08-125.312 183.424l-34.048 15.552 29.76 22.656c28.8 21.888 45.312 54.848 45.312 90.24A113.92 113.92 0 0 1 738.816 390.4c-62.72 0-113.728-51.008-113.728-113.728 0-35.392 16.512-68.352 45.312-90.24l29.76-22.656-34.048-15.552c-73.152-33.344-108.544-118.144-125.312-183.424a22.848 22.848 0 0 1 4.16-19.712z"  horiz-adv-x="1024" />
      
      <glyph glyph-name="fill-xinxi" unicode="&#59305;" d="M585.142857 42.642286c282.770286 0 512 174.665143 512 390.144C1097.142857 648.192 867.913143 822.857143 585.142857 822.857143S73.142857 648.192 73.142857 432.786286c0-115.565714 65.901714-219.428571 170.642286-290.816v-74.313143a73.142857 73.142857 0 0 1 104.96-65.828572l109.714286 52.882286A666.185143 666.185143 0 0 1 585.142857 42.642286z"  horiz-adv-x="1170" />
      
      <glyph glyph-name="fill-xinzi" unicode="&#59306;" d="M908.8 364.8a230.912 230.912 0 0 1-128 38.08c-74.24 0-140.16-34.432-182.4-87.808H64V653.824A50.56 50.56 0 0 0 115.2 704h742.4c28.416 0 51.2-22.4 51.2-50.176V364.8zM601.6 177.088c0 96.896 80.32 175.616 179.2 175.616 98.944 0 179.2-78.72 179.2-175.616 0-96.96-80.256-175.68-179.2-175.68-98.88 0-179.2 78.72-179.2 175.68z m204.16-3.456h67.008v35.84h-56.128l49.6 57.728-27.52 22.528-50.688-59.072-50.752 59.072-27.456-22.528 49.6-57.728h-57.472v-35.84h67.008v-22.4h-67.008v-35.776h67.008v-51.328h36.736v51.328h66.816v35.84H805.76v22.4zM64 214.72h489.6a220.544 220.544 0 0 1 20.736-137.984H115.2a50.56 50.56 0 0 0-51.2 50.176v87.808z"  horiz-adv-x="1024" />
      
      <glyph glyph-name="fill-pingguo" unicode="&#59307;" d="M490.042514 640a256 256 0 0 0 256 256 256 256 0 0 0-256-256z m386.340572-97.645714c-19.821714-4.388571-108.032-24.356571-106.788572-197.412572h-0.146285c1.389714-126.976 135.899429-202.898286 137.435428-203.629714l-0.219428-0.658286a573.293714 573.293714 0 0 0-70.656-141.312c-42.642286-62.537143-86.893714-124.562286-156.598858-125.878857-33.645714-0.731429-56.027429 8.996571-79.36 19.090286-24.283429 10.532571-49.590857 21.504-89.673142 21.504-42.057143 0-68.608-11.337143-94.134858-22.235429-22.162286-9.435429-43.52-18.578286-73.581714-19.748571-67.364571-2.486857-118.637714 67.291429-161.645714 129.609143C93.023086 128.658286 25.877943 360.594286 116.136229 517.339429c44.836571 77.824 125.001143 126.902857 211.821714 128.219428 37.449143 0.658286 73.728-13.897143 105.472-26.550857 24.356571-9.728 46.006857-18.432 63.488-18.432 15.725714 0 36.717714 8.192 61.220571 17.700571 38.692571 14.921143 86.016 33.28 134.802286 28.306286 33.28-1.243429 126.976-15.140571 187.172571-103.131428a18.651429 18.651429 0 0 0-3.730285-1.097143z"  horiz-adv-x="1024" />
      
      <glyph glyph-name="fill-xinwenzixun" unicode="&#59308;" d="M865.664-64H158.336C106.24-64 64-21.76 64 30.336V737.664C64 789.76 106.24 832 158.336 832h707.328C917.76 832 960 789.76 960 737.664v-707.328C960-21.76 917.76-64 865.664-64zM229.12 207.168c0-19.52 15.808-35.392 35.392-35.392H429.44a35.392 35.392 0 0 1 35.328 35.392V372.224a35.392 35.392 0 0 1-35.328 35.328H264.32a35.392 35.392 0 0 1-35.328-35.328v-165.12z m35.392 389.056a35.392 35.392 0 1 1 0-70.72h495.104a35.392 35.392 0 1 1 0 70.72H264.448z m495.104-188.672H594.56a35.392 35.392 0 1 1 0-70.72h165.12a35.392 35.392 0 1 1 0 70.72zM594.56 242.56a35.392 35.392 0 0 1 0-70.72h165.12a35.392 35.392 0 1 1 0 70.784h-165.12z"  horiz-adv-x="1024" />
      
      <glyph glyph-name="fill-rili" unicode="&#59309;" d="M827.904 763.072h-138.88v34.496A34.56 34.56 0 0 1 654.336 832a34.56 34.56 0 0 1-34.752-34.432v-34.496h-277.76v34.496A34.56 34.56 0 0 1 307.2 832a34.56 34.56 0 0 1-34.688-34.432v-34.496h-138.88c-18.752 1.28-37.12-5.632-50.432-18.816a64.512 64.512 0 0 1-19.008-50.112V5.12c-1.28-18.624 5.696-36.864 19.008-50.112 13.312-13.184 31.68-20.032 50.432-18.816h694.4c18.688-1.216 37.12 5.632 50.432 18.816 13.248 13.248 20.16 31.488 18.944 50.112V694.144a64.512 64.512 0 0 1-18.944 50.112 65.536 65.536 0 0 1-50.496 18.816z m-416.64-516.8a33.92 33.92 0 0 0-33.92-33.792h-138.88a34.176 34.176 0 0 0-35.456 33.792V384a33.92 33.92 0 0 0 34.048 33.792h138.88A34.176 34.176 0 0 0 411.264 384v-137.792zM133.632 556.352V694.144h138.88v-34.432a34.56 34.56 0 0 1 34.688-34.432 34.56 34.56 0 0 1 34.752 34.432v34.432h277.76v-34.432a34.56 34.56 0 0 1 34.688-34.432 34.56 34.56 0 0 1 34.688 34.432v34.432h138.88v-137.792H133.568z"  horiz-adv-x="1024" />
      
      <glyph glyph-name="fill-daiban" unicode="&#59310;" d="M302.528 690.048c0-29.248 23.616-53.248 52.416-53.248 28.8 0 52.352 24 52.352 53.248V778.752A52.928 52.928 0 0 1 354.944 832a52.928 52.928 0 0 1-52.416-53.248v-88.704z m367.04 0c0-29.248 23.552-53.248 52.352-53.248 28.8 0 52.352 24 52.352 53.248V778.752A52.928 52.928 0 0 1 721.92 832a52.928 52.928 0 0 1-52.352-53.248v-88.704zM894.272 769.92H182.08A54.848 54.848 0 0 1 128 714.88v-723.456a55.04 55.04 0 0 1 54.528-55.424h711.296a55.04 55.04 0 0 1 54.592 55.424V714.88c-0.448 30.208-24.448 55.04-54.144 55.04zM766.08 345.856l-234.368-238.208a34.624 34.624 0 0 0-49.28 0l-147.968 150.4a36.032 36.032 0 0 0 0 50.112 34.624 34.624 0 0 0 49.28 0l123.52-125.504 209.92 213.312a34.624 34.624 0 0 0 49.28 0 36.48 36.48 0 0 0-0.384-50.112z m111.232 308.288l-0.448-20.864c-0.384-14.656-0.384-29.248-0.384-40.832H198.272V693.184c0 3.072 2.56 5.76 6.08 5.76h667.712c3.456 0 6.08-2.688 6.08-5.76-0.448-5.312-0.448-11.968-0.448-18.176-0.256-5.76-0.32-12.8-0.448-20.864z"  horiz-adv-x="1024" />
      
      <glyph glyph-name="fill-yunpan" unicode="&#59311;" d="M288 41.728c-123.712 0-224 98.816-224 220.8C64 366.848 137.6 454.4 236.48 477.312 260.096 606.208 374.4 704 512 704c135.808 0 249.024-95.296 274.56-221.696A253.12 253.12 0 0 1 551.424 368l211.712-133.12 1.728-193.216H288zM568 234.88c0-106.688 87.744-193.152 196.032-193.152 108.16 0 195.968 86.464 195.968 193.152 0 106.688-87.744 193.152-196.032 193.152-108.16 0-195.968-86.4-195.968-193.152z"  horiz-adv-x="1024" />
      
      <glyph glyph-name="fill-zixun" unicode="&#59312;" d="M797.056 832H261.824C187.968 832 128 772.032 128 698.24v-628.48C128-3.968 187.968-64 261.76-64h535.296c73.856 0 133.76 59.968 133.76 133.76V698.24c0 73.792-59.904 133.76-133.76 133.76z m-346.88-490.24H349.632a34.752 34.752 0 1 0 0 69.568h100.672c19.2 0 34.24-15.552 34.24-34.816a34.56 34.56 0 0 0-34.24-34.816zM349.632 500.608a34.752 34.752 0 1 0 0 69.568h192.192c19.2 0 34.24-15.488 34.24-34.752a34.176 34.176 0 0 0-33.728-34.816h-192.64z"  horiz-adv-x="1024" />
      
      <glyph glyph-name="fill-wendang" unicode="&#59313;" d="M844.736 550.656h-627.84c-30.592 0-54.144-25.984-54.144-56.704L64 45.12V711.36C64 741.952 89.856 768 120.448 768h277.504c30.528 0 56.384-25.984 56.384-56.704v-49.6h333.952c16.448 0 30.592-7.04 40-16.512a55.488 55.488 0 0 0 16.448-40.192v-54.336zM842.432 4.992a55.488 55.488 0 0 1 16.448 40.128L960 451.456a57.344 57.344 0 0 1-56.448 56.704H261.568a57.344 57.344 0 0 1-56.448-56.704l-98.752-463.04h696.064c16.448 0 30.592 7.104 40 16.576z"  horiz-adv-x="1024" />
      
      <glyph glyph-name="fill-wode" unicode="&#59314;" d="M485.632 384.192a223.872 223.872 0 1 1 0 447.808 223.872 223.872 0 0 1 0-447.808zM701.12 362.048H270.208A206.208 206.208 0 0 1 64 155.84v-137.344c0.128-45.504 36.992-82.368 82.496-82.496h678.336a82.688 82.688 0 0 1 82.496 82.496v137.344a206.208 206.208 0 0 1-206.208 206.208z"  horiz-adv-x="1024" />
      
      <glyph glyph-name="fill-zhuxitong" unicode="&#59315;" d="M137.344 832h261.76c34.304 0 72.128-38.912 72.128-72.96v-262.272c0-34.048-39.04-72.96-73.344-72.96h-261.76C101.76 423.744 64 463.872 64 497.984V757.76C64 791.808 103.04 832 137.344 832zM624.064 832h261.76c34.304 0 72.128-38.912 72.128-72.96v-262.272c0-34.048-39.04-72.96-73.344-72.96h-261.76c-34.304 0-72.128 40.128-72.128 74.24V757.76c0 34.048 39.04 74.24 73.344 74.24zM399.104 344.256h-261.76C103.104 344.256 64 304 64 270.016v-259.776c0-34.048 37.824-74.24 72.128-74.24h261.76c34.24 0 73.344 38.912 73.344 72.96V271.296c0 34.048-37.824 72.96-72.128 72.96zM624.064 344.256h261.76c34.304 0 72.128-38.976 72.128-73.024v-262.208c0-34.112-39.04-73.024-73.344-73.024h-261.76c-34.304 0-72.128 40.192-72.128 74.24V269.952c0 34.112 39.04 74.24 73.344 74.24z"  horiz-adv-x="1024" />
      
      <glyph glyph-name="line-yingyezhizhao" unicode="&#59283;" d="M424.192 335.232L512 384l87.744-48.768-14.592 102.4 73.152 68.288-102.4 14.592L512 613.184l-43.904-92.672-102.4-14.592 73.152-68.288-14.656-102.4zM4.864 788.736v-809.472h1014.272V788.736H4.864zM102.4 76.8V691.2h814.336v-614.4H102.4zM180.416 266.944h658.304v-97.472H180.416V266.88z"  horiz-adv-x="1024" />
      
      <glyph glyph-name="line-tupian" unicode="&#59284;" d="M58.496 837.504V-64.64H960.64V837.504H58.496z m809.472-97.536V320.64l-209.664 121.856L156.032 76.8V739.968h711.936zM258.432 28.032l404.736 292.608 204.8-117.056v-175.552H258.432zM292.544 525.44a73.152 73.152 0 1 1 146.304 0 73.152 73.152 0 0 1-146.304 0z"  horiz-adv-x="1024" />
      
      <glyph glyph-name="line-xiugai" unicode="&#59285;" d="M683.2 464.64c17.472-10.048 39.68-4.736 50.688 12.096l162.304 299.904a37.952 37.952 0 0 1-65.472 38.144l-162.56-300.352a37.952 37.952 0 0 1 15.04-49.856z m233.216 68.352h-65.664v-531.328H193.664V701.312h478.72V766.976H181.888C152.32 766.976 128 743.68 128 714.88v-726.912c0-28.8 24.32-52.032 54.08-52.032h680.32c29.824 0 54.016 23.168 54.016 52.096V532.992zM474.304 228.48H235.712v-77.056H474.24V228.48zM235.712 390.016h400.128V312.96H235.712V390.016z"  horiz-adv-x="1024" />
      
      <glyph glyph-name="line-yanshi" unicode="&#59286;" d="M752.991523 577.832765l-186.216141-186.216141-127.983602 127.983602-250.591893-250.591893 25.852688-25.852687L438.79178 467.894851l127.983602-127.983602 212.068829 212.068829 30.460097-30.332114 31.739933 118.384832-118.448824-31.739934 30.396106-30.460097zM950.726188 786.318053H548.473727v36.539318a36.539318 36.539318 0 1 1-73.142629 0v-36.539318H73.142629a36.539318 36.539318 0 0 1-36.603311-36.60331V128.098387c0-20.221409 16.381901-36.539318 36.603311-36.539318h167.658518L83.829259-65.476811a36.539318 36.539318 0 1 1 51.705376-51.705375L344.27589 91.623061h335.381029l208.741255-208.741255a36.475327 36.475327 0 0 1 51.705375 0 36.539318 36.539318 0 0 1 0 51.705375l-157.03588 157.03588h167.722511a36.539318 36.539318 0 0 1 36.539318 36.539318V749.714743a36.539318 36.539318 0 0 1-36.539318 36.60331zM109.681947 164.573714V713.175424h804.504923v-548.537718H109.681947z"  horiz-adv-x="1024" />
      
      <glyph glyph-name="line-xinxi" unicode="&#59287;" d="M535.68 101.376c-28.672 0-56.704 2.112-83.2 6.336a27.264 27.264 0 0 0-22.528 31.168 27.008 27.008 0 0 0 30.848 22.72c23.808-3.712 48.96-5.632 74.88-5.632 230.208 0 417.472 153.728 417.472 342.656 0 189.056-187.328 342.848-417.472 342.848-230.336 0-417.664-153.792-417.664-342.848 0-48.576 12.16-95.424 36.096-139.392a352.832 352.832 0 0 1 99.2-112.832 27.52 27.52 0 0 0 5.632-38.144 26.88 26.88 0 0 0-37.76-5.632 406.848 406.848 0 0 0-114.368 130.304A342.656 342.656 0 0 0 64 498.56c0 54.336 12.8 107.008 37.952 156.544a400.448 400.448 0 0 0 102.144 126.208C292.928 855.296 410.688 896 535.616 896c125.056 0 242.752-40.704 331.52-114.624a400.192 400.192 0 0 0 102.08-126.272 342.336 342.336 0 0 0 0-312.96 400.128 400.128 0 0 0-102.08-126.144c-88.768-73.92-206.464-114.56-331.52-114.56zM214.976-78.208a62.4 62.4 0 0 0-33.984 10.24 63.104 63.104 0 0 0-27.072 69.12l57.152 230.016a27.008 27.008 0 1 0 52.352-13.312l-57.088-229.952c-1.344-5.312 1.28-8.32 3.84-9.92a8.128 8.128 0 0 1 10.176 0.576l219.392 177.408a26.816 26.816 0 0 0 37.952-4.288 27.52 27.52 0 0 0-4.16-38.336L254.08-64a61.952 61.952 0 0 0-39.104-14.08z"  horiz-adv-x="1024" />
      
      <glyph glyph-name="line-kaifa" unicode="&#59288;" d="M512 896a438.912 438.912 0 0 1-438.848-438.848A438.336 438.336 0 0 1 292.48 77.44v-95.808c0-40.32 32.768-73.152 73.152-73.152h73.152c0-20.16 16.32-36.544 36.544-36.544h73.152a36.544 36.544 0 0 1 36.608 36.544h73.088c40.448 0 73.152 32.768 73.152 73.152v95.808a438.4 438.4 0 0 1 219.456 379.648A438.848 438.848 0 0 1 512 896z m146.24-914.304H365.696v36.608h292.544v-36.608z m0 73.152H365.696v36.608h292.544v-36.608z m36.48 85.952l-22.016-12.8H530.24V349.248A109.568 109.568 0 0 1 512 566.848a109.568 109.568 0 1 1-18.304-217.6V128H351.296l-22.08 12.8a367.04 367.04 0 0 0-182.976 316.352A366.08 366.08 0 0 0 512 822.848a366.08 366.08 0 0 0 365.696-365.696 367.04 367.04 0 0 0-182.976-316.352zM512 384c-40.32 0-73.152 32.832-73.152 73.152S471.68 530.304 512 530.304s73.152-32.832 73.152-73.152S552.32 384 512 384z"  horiz-adv-x="1024" />
      
      <glyph glyph-name="line-fenxiang" unicode="&#59289;" d="M783.232-64H263.232C190.4-64 128-1.6 128 71.232V591.232c0 72.768 62.4 135.168 135.168 135.168H502.4c15.616 0 25.984-10.432 25.984-25.984 0-15.616-15.616-25.984-25.984-25.984H263.232c-46.848 0-83.2-36.48-83.2-83.2v-520.064c0-46.72 36.352-83.2 83.2-83.2h519.936c46.848 0 83.2 36.48 83.2 83.2V331.2c0 15.616 10.432 25.984 26.048 25.984 15.552 0 25.984-10.368 25.984-25.984v-260.032A134.272 134.272 0 0 0 783.232-64zM934.016 471.616c-15.616 0-25.984 10.368-25.984 25.984V715.968h-218.432c-15.552 0-25.984 10.432-25.984 26.048 0 15.616 10.432 25.984 25.984 25.984h244.48c15.552 0 25.92-10.432 25.92-25.984v-244.416c0-15.616-10.368-25.984-25.984-25.984zM476.416 258.368c-5.248 0-15.616 0-20.8 5.248a25.152 25.152 0 0 0 0 36.416l457.6 457.6a25.152 25.152 0 0 0 36.416 0 25.152 25.152 0 0 0 0-36.48l-452.48-457.6c-5.12-5.12-15.552-5.12-20.736-5.12z"  horiz-adv-x="1024" />
      
      <glyph glyph-name="line-yuanmaxiazai" unicode="&#59290;" d="M549.77024 11.968V457.216H476.74624v-445.12l-102.144 102.08-51.712-51.648L513.22624-128l190.464 190.464-51.776 51.648-102.144-102.08zM803.40224 639.232A292.48 292.48 0 0 1 513.22624 896a292.48 292.48 0 0 1-290.176-256.768 237.568 237.568 0 0 1 15.872-474.688h128v73.152h-128a164.736 164.736 0 0 0-164.544 164.608 164.736 164.736 0 0 0 153.536 163.904l60.352 4.032 7.36 60.16A219.392 219.392 0 0 0 513.22624 822.784a219.328 219.328 0 0 0 217.6-192.512l7.296-60.096 60.416-4.032a164.736 164.736 0 0 0 153.6-163.904 164.736 164.736 0 0 0-164.608-164.608h-128v-73.152h128a237.568 237.568 0 1 1 15.872 474.624z"  horiz-adv-x="1041" />
      
      <glyph glyph-name="line-fenfa" unicode="&#59291;" d="M841.152 652.16V749.76h-36.608V822.848H768V896H256v-73.152h-36.544v-73.152h-36.608v-97.472L0 347.52v-365.888s0-36.544 36.544-36.544H987.52s36.544 0 36.544 36.544V347.584l-182.848 304.64z m0-142.08L916.8 384h-75.648V510.08zM292.48 859.456h438.912v-36.608H292.48V859.52zM256 786.304h512v-36.608H256v36.608z m-36.544-73.152h585.088V384h-109.696a36.544 36.544 0 0 1-36.544-36.544v-109.76H365.696V347.584a36.544 36.544 0 0 1-36.544 36.544H219.456v328.96zM182.848 510.08v-125.952h-75.52l75.52 125.952z m768-491.776H73.152V310.976H292.48v-109.824c0-20.224 16.384-36.608 36.608-36.608h365.696a36.544 36.544 0 0 1 36.608 36.608V310.848h219.392v-292.544z"  horiz-adv-x="1024" />
      
      <glyph glyph-name="line-shenfenzhengfan" unicode="&#59292;" d="M0 783.872v-804.608h1024V783.872H0z m926.464-702.208H97.536V686.336h828.928v-604.672zM365.696 296.256c78.08 0 136.576-63.36 136.576-136.576h97.536c0 82.944-43.904 156.032-112.192 199.936 19.52 24.384 34.176 58.496 34.176 92.672a154.048 154.048 0 0 1-156.096 156.032 154.048 154.048 0 0 1-156.032-156.032c0-34.176 14.656-68.288 34.176-92.672-68.288-43.904-112.192-117.056-112.192-199.936h97.536c-4.864 78.08 58.496 136.576 136.512 136.576zM307.2 452.288c0 34.112 24.384 58.496 58.496 58.496 34.176 0 58.56-24.384 58.56-58.496 0-34.176-24.384-58.56-58.56-58.56-34.112 0-58.496 29.312-58.496 58.56z m258.432 112.128h312.064v-97.536H565.632V564.48z m92.672-204.8h214.528v-97.536h-214.528V359.68z"  horiz-adv-x="1024" />
      
      <glyph glyph-name="line-shenfenzhengzheng" unicode="&#59293;" d="M0 783.872v-804.608h1024V783.872H0z m926.464-702.208H97.536V686.336h828.928v-604.672zM365.696 296.256c78.08 0 136.576-63.36 136.576-136.576h97.536c0 82.944-43.904 156.032-112.192 199.936 19.52 24.384 34.176 58.496 34.176 92.672a154.048 154.048 0 0 1-156.096 156.032 154.048 154.048 0 0 1-156.032-156.032c0-34.176 14.656-68.288 34.176-92.672-68.288-43.904-112.192-117.056-112.192-199.936h97.536c-4.864 78.08 58.496 136.576 136.512 136.576zM307.2 452.288c0 34.112 24.384 58.496 58.496 58.496 34.176 0 58.56-24.384 58.56-58.496 0-34.176-24.384-58.56-58.56-58.56-34.112 0-58.496 29.312-58.496 58.56z m258.432 112.128h312.064v-97.536H565.632V564.48z m92.672-204.8h214.528v-97.536h-214.528V359.68z"  horiz-adv-x="1024" />
      
      <glyph glyph-name="line-rumen" unicode="&#59294;" d="M914.304 822.848h-256c-59.776 0-112.896-28.8-146.304-73.216a182.72 182.72 0 0 1-146.304 73.216h-256c-40.32 0-73.152-32.768-73.152-73.152v-676.544c0-40.32 32.832-73.152 73.152-73.152h268.864c35.84-35.072 83.648-54.848 133.44-54.848s97.536 19.776 133.44 54.848h268.8c40.32 0 73.152 32.768 73.152 73.152V749.696c0 40.32-32.768 73.152-73.088 73.152z m0-749.696H629.568a36.48 36.48 0 0 1-27.776-12.8c-22.848-26.688-55.68-42.048-89.792-42.048-34.176 0-66.944 15.36-89.856 42.048a36.48 36.48 0 0 1-27.776 12.8H109.696V749.696h256c60.48 0 109.696-49.216 109.696-109.696v-310.848a36.544 36.544 0 1 1 73.152 0V640c0 60.48 49.28 109.696 109.76 109.696h256v-676.544z"  horiz-adv-x="1024" />
      
      <glyph glyph-name="line-fanhui" unicode="&#59295;" d="M1009.152 276.032v7.808c0 198.592-142.08 348.16-330.368 348.16H136.96l134.08 132.544a40.512 40.512 0 0 1-56.896 57.472L11.968 621.888A39.808 39.808 0 0 1 0 593.216c0-10.688 4.224-20.928 11.712-28.544h0.128l0.128-0.128 200.64-201.28a40.512 40.512 0 0 1 57.152 57.088L139.392 551.04h539.52c142.208 0 249.536-115.008 249.536-267.456v-7.808c0-147.2-102.656-249.92-249.536-249.92H39.552a40.512 40.512 0 0 1 0-80.768h639.36c191.36 0.128 330.24 139.2 330.24 330.88z"  horiz-adv-x="1024" />
      
      <glyph glyph-name="line-yingyongfenfa" unicode="&#59296;" d="M964.28928 454.976L834.17728 584.96V668.032h-75.84V744.32h-82.944L545.28128 874.432a74.368 74.368 0 0 1-104.704 0L310.40128 744.32H227.52128v-75.968H151.68128v-83.008L21.76128 455.296a73.216 73.216 0 0 1-21.76-52.48v-492.992a37.824 37.824 0 0 1 37.824-37.76h910.336a38.016 38.016 0 0 1 38.016 37.76V402.56a73.792 73.792 0 0 1-21.888 52.48z m-130.112 22.848l74.304-74.304-74.304-54.08V477.824zM492.80128 819.2l75.136-75.2H417.66528L492.86528 819.2zM265.34528 705.92h455.168v-37.952H265.34528V705.92zM189.44128 630.208h606.848v-308.48l-295.68-215.744-2.368-3.52-4.16-4.288-4.288 4.288-4.672 3.52-295.68 215.68v308.48z m-38.016-152.512V349.44l-74.304 54.08 74.304 74.176z m758.528-529.856H75.64928v362.88l365.056-265.472a74.368 74.368 0 0 1 104.704 0l365.12 265.472-0.512-362.88zM834.30528 349.248l-37.952-27.52v308.48H189.44128v-308.48l-38.016 27.712V668.032h682.88v-318.784zM720.51328 668.032h37.824V743.872H227.32928v-75.84h38.016V705.92h455.168v-37.952z"  horiz-adv-x="1024" />
      
      <glyph glyph-name="line-zhanghaofuwu" unicode="&#59297;" d="M914.304 384A402.24 402.24 0 0 1 512 786.304 402.24 402.24 0 0 1 109.696 384 402.24 402.24 0 0 1 512-18.304 402.24 402.24 0 0 1 914.304 384zM164.48 384c0 37.056 6.016 72.704 16.768 106.176 169.664 3.84 320.768 71.808 423.36 177.28a579.456 579.456 0 0 1 224-141.44c19.584-43.392 30.72-91.392 30.72-142.016A347.84 347.84 0 0 0 512 36.544 347.84 347.84 0 0 0 164.544 384zM381.696 489.728a70.464 70.464 0 1 1 0-141.056c29.888 0 55.104 18.688 65.28 44.928l-51.2 25.6 51.2 25.6a69.888 69.888 0 0 1-65.28 44.928zM647.552 348.48c29.824 0 55.104 18.688 65.28 44.928l-51.2 25.6 51.2 25.6a70.016 70.016 0 0 1-65.28 44.864 70.464 70.464 0 1 1 0-140.992zM993.472 453.888C968.64 701.888 762.176 896 512 896S55.36 701.888 30.528 453.888A46.272 46.272 0 0 1 0 410.624v-89.792a46.72 46.72 0 0 1 93.44 0V410.624a46.08 46.08 0 0 1-25.536 40.832C91.52 680.32 281.664 859.456 512 859.456c230.4 0 420.544-179.072 444.096-408a46.08 46.08 0 0 1-25.6-40.832v-89.792c0-19.648 12.352-36.224 29.568-43.072a466.88 466.88 0 0 0-380.288-353.664c-8.768 12.416-27.52 21.056-49.472 21.056-30.272 0-54.848-16.384-54.848-36.608 0-20.16 24.576-36.544 54.848-36.544 29.12 0 52.736 15.232 54.528 34.368a485.248 485.248 0 0 1 393.216 368 46.656 46.656 0 0 1 45.952 46.464V410.624c0 19.968-12.8 36.672-30.528 43.264z"  horiz-adv-x="1024" />
      
      <glyph glyph-name="line-dianzan" unicode="&#59298;" d="M911.232 527.808c-29.184 7.68-89.984 9.024-177.6 11.008a16210.56 16210.56 0 0 0-69.056 1.664c6.016 27.264 7.296 51.84 7.296 95.424C672 740.224 595.968 832 528.768 832A87.68 87.68 0 0 1 441.6 745.536c-0.64-58.496-18.56-159.488-116.16-210.816-7.168-3.712-27.52-13.76-30.528-15.168l0.32-0.32a92.16 92.16 0 0 1-56.96 22.272H151.168C103.04 541.504 64 502.464 64 454.4v-464.96c0-48.064 39.104-87.168 87.168-87.168h87.104c33.408 0.256 63.616 19.84 77.568 50.176l1.28-0.384 7.04-1.856a7634.56 7634.56 0 0 1 119.04-27.904c14.912-3.392 92.8-20.032 173.568-20.032h158.848c48.384 0 84.224 18.048 103.936 56.064 19.392 33.664 114.176 214.592 114.112 469.568 0 36.736-25.408 83.52-82.432 99.84v0.064z m-643.84-538.368c0-16-13.056-29.056-29.12-29.056H151.168a29.056 29.056 0 0 0-29.056 29.056V454.4c0 16 12.992 28.992 29.056 28.992h87.104c16.128 0 29.056-12.992 29.056-28.992v-464.96z m560.96-3.776c-8.832-15.808-22.848-25.28-52.864-25.28h-158.72c-79.808 0-158.912 18.048-160.96 18.56-115.072 26.496-126.208 29.696-133.504 31.744l-1.088 0.32 4.224 426.88c0 20.992 0.192 29.44 0.32 32.512a51.328 51.328 0 0 0-0.32-0.128c0.192 0.128 0.32 0.896 0.384 1.344v-1.216c132.48 55.04 172.8 175.488 173.888 274.368 0.064 16 13.056 28.992 29.056 29.056 30.72 0 84.992-61.632 84.992-137.984 0-68.928-2.752-80.704-26.88-152.512 274.112 0 287.808-3.712 310.016-9.792l4.096-1.088a44.416 44.416 0 0 0 34.432-44.544c0-6.592 0-8.192-0.192-11.392a429.312 429.312 0 0 1-0.32-6.848c-12.16-291.84-106.56-424-106.56-424z"  horiz-adv-x="1024" />
      
    </font>
</defs>
</svg>
